<?xml version="1.0" encoding="utf-8"?>
<!-- Generator: Adobe Illustrator 26.3.1, SVG Export Plug-In . SVG Version: 6.00 Build 0)  -->
<svg version="1.1" id="Layer_1" xmlns="http://www.w3.org/2000/svg" xmlns:xlink="http://www.w3.org/1999/xlink" x="0px" y="0px"
	 viewBox="0 0 920 305.9" style="enable-background:new 0 0 920 305.9;" xml:space="preserve">
<style type="text/css">
	.st0{fill:#A1A1A1;}
	.st1{fill:#141414;fill-opacity:0.5;}
	.st2{fill:#131313;fill-opacity:0.5;}
	.st3{fill:#F7F7F7;fill-opacity:0.5;}
	.st4{filter:url(#g1);}
	.st5{opacity:0.5;fill:#797979;}
	.st6{fill-opacity:0.5;}
	.st7{filter:url(#g10);}
	.st8{opacity:0.5;fill:#414141;}
	.st9{opacity:0.5;fill:#CBCBCB;}
	.st10{opacity:0.5;fill:#BBBBBB;}
	.st11{fill:#121212;fill-opacity:0.5;}
	.st12{fill:#7A7A7A;fill-opacity:0.5;}
	.st13{fill:#EEEEEE;fill-opacity:0.5;}
	.st14{fill:#FFFFFF;fill-opacity:0.5;}
	.st15{fill:#515151;fill-opacity:0.5;}
	.st16{fill:#6CB8C3;fill-opacity:0.5;}
	.st17{fill:#C4C4C4;fill-opacity:0.5;}
</style>
<filter  id="g10">
	<feGaussianBlur  stdDeviation="10"></feGaussianBlur>
</filter>
<filter  id="g1">
	<feGaussianBlur  stdDeviation="1"></feGaussianBlur>
</filter>
<rect class="st0" width="920" height="305.9"/>
<path class="st1" d="M917.7,473.8L508.3,414L713,85.1l303.6,57.5L917.7,473.8z"/>
<path class="st2" d="M409.4,524.4L138,363.4l223.1-188.6l131.1,200.1L409.4,524.4z"/>
<path class="st3" d="M-4.6,280.6l-16.1-85.1l379.5-372.6L503.7-2.3L-4.6,280.6z"/>
<g class="st4">
	<polygon class="st5" points="664.7,347.3 368,338.1 446.2,39.1 968.3,193.2 	"/>
</g>
<path class="st6" d="M669.3,416.3l29.9-105.8l207-4.6l6.9,98.9L669.3,416.3z"/>
<g class="st7">
	<polygon class="st8" points="729.1,163.3 719.9,243.8 664.7,-27.6 809.6,71.3 	"/>
</g>
<g class="st4">
	<polygon class="st9" points="264.5,374.9 41.4,161 -59.8,407.1 305.9,230 	"/>
</g>
<g class="st4">
	<polygon class="st10" points="312.8,384.1 312.8,319.7 418.6,315.1 370.3,409.4 	"/>
</g>
<path class="st11" d="M370.3,489.9L177.1,370.3l269.1,36.8l11.5,55.2L370.3,489.9z"/>
<path class="st12" d="M995.9,531.3l-177.1-18.4l-135.7-66.7l181.7-27.6L995.9,531.3z"/>
<path class="st13" d="M-78.2,124.2l144.9-16.1l71.3,78.2l-147.2,46L-78.2,124.2z"/>
<path class="st14" d="M425.5,50.6l-23-89.7h181.7l-57.5,82.8L425.5,50.6z"/>
<path class="st15" d="M342.7,211.6l-126.5,55.2l46-158.7l55.2,16.1L342.7,211.6z"/>
<path class="st16" d="M46.9,121.9l101.2-82.8L283.8,69L164.2,89.7L46.9,121.9z"/>
<path class="st17" d="M662.4,358.8l-29.9-250.7l43.7,6.9L690,365.7L662.4,358.8z"/>
</svg>
