<svg width="660" height="270" xmlns="http://www.w3.org/2000/svg">

 <g>
  <title>Layer 1</title>
  <rect id="svg_1" fill="#464646" height="690" width="920" y="-210" x="-130" class="cls-1"/>
  <path id="svg_2" fill="rgba(231,238,244,.5)" d="m428.9,-1054.1l-1060.3,1524.9l1725,27.6l-664.7,-1552.5z" class="cls-9"/>
  <path id="svg_3" fill="rgba(60,64,68,.5)" d="m311.6,153.4l-142.6,-34.5l4.6,443.9l138,-409.4z" class="cls-56"/>
  <path id="svg_4" fill="rgba(108,184,195,.5)" d="m281.7,201.7l115,174.8l-9.2,-368l-105.8,193.2z" class="cls-48"/>
  <path id="svg_5" fill="rgba(0,2,7,.5)" d="m67.8,15.4l41.4,591.1l-43.7,-140.3l2.3,-450.8z" class="cls-5"/>
  <path id="svg_6" fill="rgba(206,210,213,.5)" d="m488.7,10.8l-600.3,-356.5l1060.3,278.3l-460,78.2z" class="cls-22"/>
  <path id="svg_7" fill="rgba(238,241,244,.5)" d="m67.8,542.1l-4.6,-345l-110.4,32.2l115,312.8z" class="cls-6"/>
  <path id="svg_8" fill="rgba(6,10,15,.5)" d="m392.1,72.9l110.4,-64.4l-75.9,-20.7l-34.5,85.1z" class="cls-3"/>
  <path id="svg_9" fill="rgba(241,245,248,.5)" d="m594.5,339.7l94.3,-296.7l23,644l-117.3,-347.3z" class="cls-11"/>
  <path id="svg_10" fill="rgba(58,60,64,.5)" d="m65.5,245.4l156.4,-138l-161,-62.1l4.6,200.1z" class="cls-52"/>
  <path id="svg_11" fill="rgba(64,67,72,.5)" d="m599.1,452.4l2.3,-276l-156.4,167.9l154.1,108.1z" class="cls-39"/>
  <path id="svg_12" fill="rgba(37,41,46,.5)" d="m249.5,358.1l41.4,43.7l2.3,-234.6l-43.7,190.9z" class="cls-36"/>
  <path id="svg_13" fill="rgba(40,43,46,.5)" d="m472.6,243.1l66.7,-39.1l-165.6,-41.4l98.9,80.5z" class="cls-59"/>
  <path id="svg_14" fill="rgba(92,95,98,.5)" d="m350.7,-49l-57.5,138l-69,-119.6l126.5,-18.4z" class="cls-50"/>
  <path id="svg_15" fill="rgba(77,81,85,.5)" d="m530.1,141.9l-142.6,-55.2l9.2,200.1l133.4,-144.9z" class="cls-58"/>
  <path id="svg_16" fill="rgba(206,210,212,.5)" d="m316.2,49.9l115,13.8l-135.7,43.7l20.7,-57.5z" class="cls-21"/>
  <path id="svg_17" fill="rgba(89,91,95,.5)" d="m624.4,56.8l-98.9,-25.3l73.6,147.2l25.3,-121.9z" class="cls-49"/>
  <path id="svg_18" fill="rgba(234,238,241,.5)" d="m412.8,470.8l-121.9,25.3l4.6,-354.2l117.3,328.9z" class="cls-8"/>
  <path id="svg_19" fill="rgba(231,235,238,.5)" d="m56.3,201.7l-92,-227.7l98.9,2.3l-6.9,225.4z" class="cls-10"/>
  <path id="svg_20" fill="rgba(213,216,219,.5)" d="m702.6,139.6l-82.8,-13.8l-23,163.3l105.8,-149.5z" class="cls-33"/>
  <path id="svg_21" fill="rgba(214,218,221,.5)" d="m-49.5,155.7l55.2,-115l55.2,218.5l-110.4,-103.5z" class="cls-27"/>
  <path id="svg_22" fill="rgba(168,172,174,.5)" d="m583,300.6l-48.3,-52.9l-50.6,39.1l98.9,13.8z" class="cls-34"/>
  <path id="svg_23" fill="rgba(68,72,78,.5)" d="m394.4,424.8l23,179.4l-4.6,-349.6l-18.4,170.2z" class="cls-45"/>
  <path id="svg_24" fill="rgba(66,68,72,.5)" d="m428.9,-60.5l6.9,36.8l-52.9,27.6l46,-64.4z" class="cls-38"/>
  <path id="svg_25" fill="rgba(0,0,2,.5)" d="m205.8,185.6l78.2,-41.4l-75.9,-11.5l-2.3,52.9z" class="cls-4"/>
  <path id="svg_26" fill="rgba(213,217,220,.5)" d="m109.2,360.4l57.5,-202.4l4.6,282.9l-62.1,-80.5z" class="cls-32"/>
  <path id="svg_27" fill="rgba(209,212,215,.5)" d="m235.7,247.7l-36.8,-6.9l29.9,23l6.9,-16.1z" class="cls-26"/>
  <path id="svg_28" fill="rgba(66,70,75,.5)" d="m63.2,252.3l34.5,112.7l4.6,-158.7l-39.1,46z" class="cls-43"/>
  <path id="svg_29" fill="rgba(21,24,28,.5)" d="m601.4,206.3l-4.6,62.1l-41.4,-9.2l46,-52.9z" class="cls-40"/>
  <path id="svg_30" fill="rgba(152,155,158,.5)" d="m442.7,183.3l-11.5,75.9l62.1,-55.2l-50.6,-20.7z" class="cls-15"/>
  <path id="svg_31" fill="rgba(97,100,103,.5)" d="m732.5,52.2l-80.5,80.5l20.7,-94.3l59.8,13.8z" class="cls-57"/>
  <path id="svg_32" fill="rgba(59,61,66,.5)" d="m63.2,187.9l48.3,-43.7l-50.6,-154.1l2.3,197.8z" class="cls-53"/>
  <path id="svg_33" fill="rgba(28,30,35,.5)" d="m212.7,286.8l-41.4,-75.9l13.8,142.6l27.6,-66.7z" class="cls-42"/>
  <path id="svg_34" fill="rgba(211,215,218,.5)" d="m111.5,72.9l36.8,18.4l-6.9,-27.6l-29.9,9.2z" class="cls-29"/>
  <path id="svg_35" fill="rgba(57,58,62,.5)" d="m576.1,63.7l27.6,-59.8l-25.3,-6.9l-2.3,66.7z" class="cls-55"/>
  <path id="svg_36" fill="rgba(161,164,169,.5)" d="m339.2,213.2l-170.2,-39.1l87.4,71.3l82.8,-32.2z" class="cls-16"/>
  <path id="svg_37" fill="rgba(223,227,230,.5)" d="m438.1,592.7l23,-234.6l-25.3,-103.5l2.3,338.1z" class="cls-30"/>
  <path id="svg_38" fill="rgba(57,60,66,.5)" d="m242.6,72.9l-73.6,2.3l-108.1,-48.3l181.7,46z" class="cls-54"/>
  <path id="svg_39" fill="rgba(186,190,192,.5)" d="m304.7,-21.4l23,50.6l11.5,-59.8l-34.5,9.2z" class="cls-20"/>
  <path id="svg_40" fill="rgba(20,23,28,.5)" d="m295.5,245.4l-85.1,-4.6l75.9,18.4l9.2,-13.8z" class="cls-41"/>
  <path id="svg_41" fill="rgba(54,58,60,.5)" d="m392.1,162.6l2.3,105.8l27.6,-57.5l-29.9,-48.3z" class="cls-44"/>
  <path id="svg_42" fill="rgba(19,21,25,.5)" d="m631.3,52.2l-16.1,-18.4l48.3,6.9l-32.2,11.5z" class="cls-37"/>
  <path id="svg_43" fill="rgba(147,151,154,.5)" d="m100,240.8l0,-119.6l82.8,0l-82.8,119.6z" class="cls-17"/>
  <path id="svg_44" fill="rgba(191,192,196,.5)" d="m198.9,105.1l-36.8,20.7l6.9,11.5l29.9,-32.2z" class="cls-25"/>
  <path id="svg_45" fill="rgba(235,239,242,.5)" d="m691.1,-3l-25.3,18.4l-41.4,-41.4l66.7,23z" class="cls-7"/>
  <path id="svg_46" fill="rgba(37,40,44,.5)" d="m166.7,220.1l20.7,89.7l13.8,-92l-34.5,2.3z" class="cls-35"/>
  <path id="svg_47" fill="rgba(248,251,254,.5)" d="m58.6,24.6l4.6,165.6l-9.2,48.3l4.6,-213.9z" class="cls-2"/>
  <path id="svg_48" fill="rgba(104,108,114,.5)" d="m118.4,45.3l-50.6,-55.2l-6.9,85.1l57.5,-29.9z" class="cls-14"/>
  <path id="svg_49" fill="rgba(174,178,181,.5)" d="m583,266.1l-101.2,-18.4l96.6,36.8l4.6,-18.4z" class="cls-24"/>
  <path id="svg_50" fill="rgba(214,218,220,.5)" d="m171.3,197.1l9.2,20.7l-103.5,-18.4l94.3,-2.3z" class="cls-28"/>
  <path id="svg_51" fill="rgba(182,186,189,.5)" d="m403.6,72.9l94.3,23l-25.3,-71.3l-69,48.3z" class="cls-18"/>
  <path id="svg_52" fill="rgba(215,220,222,.5)" d="m594.5,105.1l-16.1,11.5l-115,-36.8l131.1,25.3z" class="cls-31"/>
  <path id="svg_53" fill="rgba(70,73,79,.5)" d="m477.2,192.5l92,18.4l-46,48.3l-46,-66.7z" class="cls-47"/>
  <path id="svg_54" fill="rgba(186,190,193,.5)" d="m527.8,146.5l-62.1,-6.9l87.4,64.4l-25.3,-57.5z" class="cls-19"/>
  <path id="svg_55" fill="rgba(177,181,184,.5)" d="m295.5,224.7l59.8,-2.3l0,101.2l-59.8,-98.9z" class="cls-23"/>
  <path id="svg_56" fill="rgba(228,232,235,.5)" d="m182.8,13.1l110.4,16.1l-20.7,13.8l-89.7,-29.9z" class="cls-12"/>
  <path id="svg_57" fill="rgba(101,105,110,.5)" d="m608.3,155.7l-48.3,-16.1l25.3,59.8l23,-43.7z" class="cls-13"/>
  <path id="svg_58" fill="rgba(58,61,66,.5)" d="m456.5,70.6l144.9,6.9l-78.2,11.5l-66.7,-18.4z" class="cls-51"/>
  <path id="svg_59" fill="rgba(25,26,30,.5)" d="m263.3,6.2l-13.8,-9.2l32.2,2.3l-18.4,6.9z" class="cls-46"/>
 </g>
</svg>