<?xml version="1.0" encoding="UTF-8"?><svg id="Layer_1" xmlns="http://www.w3.org/2000/svg" xmlns:xlink="http://www.w3.org/1999/xlink" viewBox="0 0 600 245"><defs><style>.cls-1{fill:#525252;}.cls-2{fill:rgba(249,249,249,.5);}.cls-3{fill:rgba(1,1,1,.5);}.cls-4{fill:rgba(6,6,6,.5);}.cls-5{fill:rgba(252,252,252,.5);}.cls-6{fill:rgba(145,145,145,.5);}.cls-7{fill:rgba(184,184,184,.5);}.cls-8{fill:rgba(218,218,218,.5);}.cls-9{fill:rgba(18,18,18,.5);}.cls-10{fill:rgba(162,162,162,.5);}.cls-11{fill:rgba(108,184,195,.5);}.cls-12{filter:url(#g0.6-4);}.cls-13{filter:url(#g0.6-2);}.cls-14{filter:url(#g0.6-3);}.cls-15{filter:url(#g1);}.cls-16{filter:url(#g0.6);}.cls-17,.cls-18,.cls-19,.cls-20{opacity:.5;}.cls-18{fill:#f3f3f3;}.cls-19{fill:#8b8b8b;}.cls-20{fill:#fff;}</style><filter id="g0.6"><feGaussianBlur stdDeviation="0.6"/></filter><filter id="g0.6-2"><feGaussianBlur stdDeviation="0.6"/></filter><filter id="g1"><feGaussianBlur stdDeviation="1"/></filter><filter id="g0.6-3"><feGaussianBlur stdDeviation="0.6"/></filter><filter id="g0.6-4"><feGaussianBlur stdDeviation="0.6"/></filter></defs><rect class="cls-1" width="600" height="245"/><path class="cls-2" d="M28.91-305.85L-84.76,426.09l360.43-149.72L28.91-305.85Z"/><path class="cls-7" d="M296.45,69.82l-98.42,31.88-11.09-37.43,109.51,5.55Z"/><path class="cls-5" d="M221.6,172.41l-90.11,151.1,15.25,180.21L221.6,172.41Z"/><path d="M278.43,79.53l41.59,706.99L685.99,259.74,278.43,79.53Z"/><g class="cls-16"><polygon class="cls-18" points="336.66 288.85 367.15 190.43 225.76 410.84 336.66 288.85"/></g><path class="cls-3" d="M339.43,251.42l-101.2-34.66-42.97-112.29,144.17,146.94Z"/><path d="M188.33,309.64l47.13-117.83,13.86,126.15-61-8.32Z"/><g class="cls-13"><polygon class="cls-20" points="300.61 251.42 236.85 223.7 249.32 295.78 300.61 251.42"/></g><path class="cls-4" d="M221.6,456.59L418.45,153l295.27,228.73-492.12,74.86Z"/><g class="cls-15"><polygon class="cls-17" points="184.17 11.6 404.58 55.96 382.4 -34.15 184.17 11.6"/></g><path class="cls-8" d="M339.43,229.24l58.22-58.22-29.11,49.91-29.11,8.32Z"/><path class="cls-6" d="M10.89-228.22L163.37,54.57,231.3-42.46,10.89-228.22Z"/><path class="cls-11" d="M439.24,143.29l24.95,11.09-73.47,22.18,48.52-33.27Z"/><g class="cls-14"><polygon class="cls-17" points="328.34 78.14 407.36 61.5 320.02 269.44 328.34 78.14"/></g><g class="cls-12"><polygon class="cls-19" points="545.98 43.48 403.2 105.86 371.31 -246.24 545.98 43.48"/></g><path class="cls-9" d="M663.81,647.89l-103.97-450.53,12.48-417.26,91.49,867.79Z"/><path class="cls-10" d="M297.84,159.93l-55.45,13.86-5.55-27.73,61,13.86Z"/><path class="cls-11" d="M421.22,69.82l-255.07-15.25L307.55-118.71l113.67,188.53Z"/></svg>