<svg width="660" height="270" xmlns="http://www.w3.org/2000/svg">

 <g>
  <title>Layer 1</title>
  <rect id="svg_1" fill="#464646" height="690" width="920" x="-212.76" class="cls-1"/>
  <path id="svg_2" fill="rgba(214,214,214,.5)" d="m51.74,680.8l-133.4,0l18.4,-450.8l115,450.8z" class="cls-7"/>
  <path id="svg_3" fill="rgba(190,190,190,.5)" d="m-212.76,225.4l-78.2,-202.4l581.9,-2.3l-503.7,204.7z" class="cls-6"/>
  <path id="svg_4" d="m-120.76,78.2l156.4,-108.1l-211.6,52.9l55.2,55.2z"/>
  <path id="svg_5" d="m339.24,43.7l-179.4,36.8l126.5,416.3l52.9,-453.1z"/>
  <path id="svg_6" fill="rgba(206,206,206,.5)" d="m327.74,52.9l236.9,-443.9l-427.8,420.9l190.9,23z" class="cls-5"/>
  <path id="svg_7" fill="rgba(144,144,144,.5)" d="m612.94,-36.8l-94.3,717.6l177.1,2.3l-82.8,-719.9z" class="cls-4"/>
  <path id="svg_8" d="m451.94,253l108.1,-370.3l-218.5,161l110.4,209.3z"/>
  <path id="svg_9" fill="rgba(119,119,119,.5)" d="m146.04,149.5l-39.1,218.5l133.4,-43.7l-94.3,-174.8z" class="cls-10"/>
  <path id="svg_10" d="m-17.26,142.6l52.9,105.8l149.5,-149.5l-202.4,43.7z"/>
  <path id="svg_11" fill="rgba(139,139,139,.5)" d="m40.24,627.9l-115,-384.1l94.3,-34.5l20.7,418.6z" class="cls-2"/>
  <path id="svg_12" d="m548.54,395.6l-78.2,-216.2l87.4,-25.3l-9.2,241.5z"/>
  <path id="svg_13" fill="rgba(7,7,7,.5)" d="m35.64,209.3l25.3,312.8l71.3,-285.2l-96.6,-27.6z" class="cls-8"/>
  <path id="svg_14" fill="rgba(158,158,158,.5)" d="m-19.56,-25.3l124.2,154.1l57.5,-149.5l-181.7,-4.6z" class="cls-3"/>
  <path id="svg_15" fill="rgba(108,184,195,.5)" d="m320.84,296.7l-4.6,-253l-184,75.9l188.6,177.1z" class="cls-9"/>
 </g>
</svg>