<?xml version="1.0" encoding="UTF-8"?><svg id="Layer_1" xmlns="http://www.w3.org/2000/svg" xmlns:xlink="http://www.w3.org/1999/xlink" viewBox="0 0 600 245"><defs><style>.cls-1{fill:#b8b8b8;}.cls-2{fill:rgba(255,255,255,.5);}.cls-3{fill:rgba(22,21,21,.5);}.cls-4{fill:rgba(12,12,12,.5);}.cls-5{filter:url(#g0.6-3);}.cls-5,.cls-6,.cls-7,.cls-8{fill:none;}.cls-6{filter:url(#g0.6-2);}.cls-7{filter:url(#g0.6-4);}.cls-8{filter:url(#g0.6);}.cls-9{fill:#6cb8c3;}.cls-9,.cls-10,.cls-11,.cls-12{opacity:.5;}.cls-10{fill:#151515;}.cls-11{fill:#fdfdfd;}.cls-12{fill:#020202;}</style><filter id="g0.6"><feGaussianBlur stdDeviation="0.6"/></filter><filter id="g0.6-2"><feGaussianBlur stdDeviation="0.6"/></filter><filter id="g0.6-3"><feGaussianBlur stdDeviation="0.6"/></filter><filter id="g0.6-4"><feGaussianBlur stdDeviation="0.6"/></filter></defs><rect class="cls-1" y="0" width="600" height="245"/><path d="m-299.25,242.03L57.75,323.31V-150.03L-299.25,242.03Z"/><g class="cls-8"><polygon class="cls-10" points="76.88 307.38 374.91 -349.25 378.09 307.38 76.88 307.38"/></g><path d="m543.84,41.22l-3.19-282.09,200.81,138.66-197.62,143.44Z"/><path d="m542.25,18.91v204l282.09-94.03L542.25,18.91Z"/><path class="cls-3" d="m-49.03,199l196.03-124.31,1.59,124.31H-49.03Z"/><g class="cls-6"><polygon class="cls-11" points="333.47 199 103.97 199 180.47 299.41 333.47 199"/></g><g class="cls-5"><polygon class="cls-12" points="408.38 -62.37 480.09 18.91 489.66 -62.37 408.38 -62.37"/></g><path class="cls-4" d="m505.59,299.41l-71.72-76.5v98.81l71.72-22.31Z"/><path class="cls-2" d="m223.5,138.44l-62.16-11.16,62.16-189.66v200.81Z"/><g class="cls-7"><polygon class="cls-9" points="483.28 219.72 -92.06 46 502.41 46 483.28 219.72"/></g></svg>