<?xml version="1.0" encoding="UTF-8"?><svg id="Layer_1" xmlns="http://www.w3.org/2000/svg" xmlns:xlink="http://www.w3.org/1999/xlink" viewBox="0 0 770 125"><defs><style>.cls-1{fill:#525252;}.cls-2{fill:rgba(249,249,249,.5);}.cls-3{fill:rgba(1,1,1,.5);}.cls-4{fill:rgba(6,6,6,.5);}.cls-5{fill:rgba(252,252,252,.5);}.cls-6{fill:rgba(184,184,184,.5);}.cls-7{fill:rgba(218,218,218,.5);}.cls-8{fill:rgba(18,18,18,.5);}.cls-9{fill:rgba(162,162,162,.5);}.cls-10{fill:rgba(108,184,195,.5);}.cls-11{filter:url(#g0.6-2);}.cls-12{filter:url(#g0.6);}.cls-13,.cls-14{opacity:.5;}.cls-14{fill:#8b8b8b;}</style><filter id="g0.6"><feGaussianBlur stdDeviation="0.6"/></filter><filter id="g0.6-2"><feGaussianBlur stdDeviation="0.6"/></filter></defs><rect class="cls-1" width="770" height="125"/><path class="cls-2" d="M113.91-365.85L.24,366.09,360.66,216.37,113.91-365.85Z"/><path class="cls-6" d="M381.45,9.82l-98.42,31.88-11.09-37.43,109.51,5.55Z"/><path class="cls-5" d="M306.6,112.41l-90.11,151.1,15.25,180.21L306.6,112.41Z"/><path d="M363.43,19.53l41.59,706.99L770.99,199.74,363.43,19.53Z"/><path class="cls-3" d="M424.43,191.42l-101.2-34.66-42.97-112.29,144.17,146.94Z"/><path class="cls-4" d="M306.6,396.59L503.45,93l295.27,228.73-492.12,74.86Z"/><path class="cls-7" d="M424.43,169.24l58.22-58.22-29.11,49.91-29.11,8.32Z"/><path class="cls-10" d="M524.24,83.29l24.95,11.09-73.47,22.18,48.52-33.27Z"/><g class="cls-12"><polygon class="cls-13" points="413.34 18.14 492.36 1.5 405.02 209.44 413.34 18.14"/></g><g class="cls-11"><polygon class="cls-14" points="630.98 -16.52 488.2 45.86 456.31 -306.24 630.98 -16.52"/></g><path class="cls-8" d="M748.81,587.89l-103.97-450.53,12.48-417.26,91.49,867.79Z"/><path class="cls-9" d="M382.84,99.93l-55.45,13.86-5.55-27.73,61,13.86Z"/><path class="cls-10" d="M506.22,9.82L251.15-5.43l141.4-173.28L506.22,9.82Z"/></svg>