<?xml version="1.0" encoding="UTF-8"?><svg id="a" xmlns="http://www.w3.org/2000/svg" viewBox="0 0 136 135"><defs><style>.b{fill:#231f20;}</style></defs><path class="b" d="M67.8,63.75l-15.4-30.7c-1,4.2-4.3,7.6-8.7,8.5l14.2,28.4c1.9-3.6,5.7-6.1,9.9-6.2Z"/><path class="b" d="M121.2,93.15c.4,0,.8,0,1.1,.1l-17.9-38.2c-1.9,3.6-5.7,5.9-9.8,5.9h-.1l17.4,37.1c2.1-3,5.5-4.9,9.3-4.9Z"/><path class="b" d="M83.5,51.25l-11.8,13.2c3.9,1.4,6.8,4.9,7.4,9l11.8-13.1c-3.9-1.4-6.8-5-7.4-9.1Z"/><path class="b" d="M31.5,35.45L12.3,93.35c.8-.2,1.6-.3,2.5-.3,3.3,0,6.4,1.5,8.5,3.9l18.3-55.3c-4.5,.1-8.3-2.4-10.1-6.2Z"/><path class="b" d="M23.4,104.25c0-1.6-.4-3.1-1.2-4.3l-.6-.9c-1.6-2.1-4.1-3.4-6.9-3.4-1.2,0-2.4,.3-3.4,.7-3.1,1.3-5.2,4.4-5.2,8,0,4.8,3.9,8.7,8.7,8.7,4.8-.1,8.6-4,8.6-8.8Z"/><path class="b" d="M50.2,30.65c0-1.1-.2-2.1-.6-3.1-.2-.5-.4-1-.7-1.5-1.5-2.5-4.3-4.1-7.4-4.1-2.6,0-5,1.2-6.6,3.1-1.3,1.5-2.1,3.5-2.1,5.6v.6c.2,3.7,2.8,6.7,6.2,7.7,.8,.2,1.6,.4,2.5,.4h1c1.1-.1,2.1-.5,3-.9,.2-.1,.5-.3,.7-.4,1.7-1.1,3-2.8,3.6-4.9,.3-.9,.4-1.7,.4-2.5Z"/><path class="b" d="M69.8,66.45c-.3-.1-.5-.1-.8-.1s-.7-.1-1.1-.1c-4.1,0-7.6,2.9-8.5,6.8-.1,.6-.2,1.2-.2,1.9,0,4.8,3.9,8.7,8.7,8.7,4.4,0,8-3.2,8.6-7.4,.1-.4,.1-.8,.1-1.3,0-.8-.1-1.5-.3-2.3-.8-3.1-3.3-5.5-6.5-6.2Z"/><path class="b" d="M94.6,58.45c.8,0,1.5-.1,2.2-.3,.2-.1,.5-.1,.7-.2,.5-.2,.9-.4,1.3-.6,.2-.1,.4-.2,.6-.4,.4-.3,.8-.6,1.1-.9l.5-.5c1-1,1.7-2.3,2-3.7,.2-.7,.3-1.4,.3-2.2,0-4.8-3.9-8.7-8.7-8.7-4.4,0-8,3.2-8.6,7.4-.1,.4-.1,.8-.1,1.3,0,4.2,2.9,7.6,6.8,8.5,.2,0,.3,.1,.5,.1,.5,.1,.9,.2,1.4,.2Z"/><path class="b" d="M123.7,95.95c-.8-.2-1.6-.4-2.5-.4-3.6,0-6.6,2.2-8,5.3-.5,1.1-.7,2.2-.7,3.4,0,4.8,3.9,8.7,8.7,8.7s8.7-3.9,8.7-8.7c0-3.9-2.7-7.2-6.2-8.3Z"/></svg>