<svg xmlns="http://www.w3.org/2000/svg" viewBox="0 0 300 200" clip-path="url(#clip)" width="919" height="612.6666666666666" style="max-height: 555.5px;"><defs><clipPath id="clip" clipPathUnits="objectBoundingBox"><rect x="0" y="0" width="300" height="200"/></clipPath></defs><rect x="0" y="0" width="300" height="200" fill="rgb(254, 254, 253)"/><filter id="g0.6"><feGaussianBlur stdDeviation="0.6"/></filter><filter id="g1"><feGaussianBlur stdDeviation="1"/></filter><filter id="g10"><feGaussianBlur stdDeviation="10"/></filter><path d="M29,135L225,229L307,57L111,-36Z" fill="rgb(174, 107, 0)" fill-opacity="0.50"/><path d="M15,8L214,8L214,192L15,192Z" fill="rgb(199, 145, 0)" fill-opacity="0.50"/><path d="M212,-3L244,-3L244,93L212,93Z" fill="rgb(255, 255, 255)" fill-opacity="0.50"/><path d="M7,105L251,105L251,191L7,191Z" fill="rgb(202, 193, 44)" fill-opacity="0.50"/><path d="M85,100L194,100L194,129L85,129Z" fill="rgb(75, 234, 215)" fill-opacity="0.50"/><path d="M172,-1L124,32L81,-1L152,-41Z" fill="rgb(255, 255, 255)" fill-opacity="0.50"/><path d="M239,133L287,138L298,32L250,27Z" fill="rgb(253, 218, 61)" fill-opacity="0.50"/><ellipse cx="114" cy="154" rx="25" ry="18" fill="rgb(62, 44, 72)" fill-opacity="0.50" transform="rotate(26.452245872586943,114,154)"/><path d="M44,87L246,87L246,99L44,99Z" fill="rgb(226, 14, 52)" fill-opacity="0.50"/><path d="M-1,116L-22,8L30,-15L42,94Z" fill="rgb(255, 255, 255)" fill-opacity="0.50"/><ellipse cx="67" cy="19" rx="21" ry="26" fill="rgb(227, 27, 24)" fill-opacity="0.50" transform="rotate(78.10223770880768,67,19)" filter="url(#g0.6)"/><path d="M166,127L247,127L247,188L166,188Z" fill="rgb(255, 201, 31)" fill-opacity="0.50" filter="url(#g0.6)"/><ellipse cx="264" cy="128" rx="19" ry="10" fill="rgb(255, 255, 255)" fill-opacity="0.50" transform="rotate(7.545759859580646,264,128)" filter="url(#g1)"/><path d="M43,35L215,35L215,87L43,87Z" fill="rgb(232, 189, 25)" fill-opacity="0.50"/><path d="M236,98L215,99L209,76L250,14Z" fill="rgb(255, 255, 255)" fill-opacity="0.50"/><path d="M112,29L81,-14L176,-2L129,27Z" fill="rgb(255, 255, 255)" fill-opacity="0.50"/><path d="M1,164L98,192L107,158L10,130Z" fill="rgb(255, 194, 23)" fill-opacity="0.50"/><ellipse cx="181" cy="20" rx="24" ry="16" fill="rgb(249, 0, 58)" fill-opacity="0.50" transform="rotate(11.902831837903673,181,20)" filter="url(#g1)"/><path d="M-1,-5L35,-5L35,99L-1,99Z" fill="rgb(255, 255, 255)" fill-opacity="0.50" filter="url(#g1)"/><path d="M190,183L158,200L232,328L264,311Z" fill="rgb(255, 255, 255)" fill-opacity="0.50"/><path d="M225,190L151,196L167,367L241,361Z" fill="rgb(255, 255, 255)" fill-opacity="0.50"/><path d="M296,331L268,165L250,126L332,95Z" fill="rgb(255, 255, 255)" fill-opacity="0.50"/><path d="M20,118L101,118L101,141L20,141Z" fill="rgb(252, 182, 42)" fill-opacity="0.50"/><ellipse cx="69" cy="102" rx="20" ry="20" fill="rgb(123, 74, 49)" fill-opacity="0.50" transform="rotate(13.558683546766922,69,102)"/><ellipse cx="276" cy="46" rx="19" ry="14" fill="rgb(218, 146, 7)" fill-opacity="0.50" transform="rotate(10.935544191439247,276,46)"/><ellipse cx="157" cy="119" rx="19" ry="16" fill="rgb(86, 243, 208)" fill-opacity="0.50" transform="rotate(12.332405595321044,157,119)" filter="url(#g0.6)"/><ellipse cx="220" cy="127" rx="10" ry="22" fill="rgb(206, 126, 0)" fill-opacity="0.50" transform="rotate(74.58186166424856,220,127)"/><ellipse cx="138" cy="101" rx="9" ry="26" fill="rgb(224, 126, 27)" fill-opacity="0.50" transform="rotate(84.00688650859735,138,101)" filter="url(#g0.6)"/><ellipse cx="248" cy="78" rx="7" ry="25" fill="rgb(229, 152, 0)" fill-opacity="0.50" transform="rotate(21.2029552948905,248,78)" filter="url(#g0.6)"/></svg>